PathFileType	4	(X/Y/Z)	D:\mayra\Descargas\0003~aa~Standing.trc
DataRate	CameraRate	NumFrames	NumMarkers	Units	OrigDataRate	OrigDataStartFrame	OrigNumFrames
250.00	250.00	5	22	mm	250.00	805	2178
Frame#	Time	r.should			l.should			c7			r.asis			l.asis			sacrum			r.bar1			l.bar1			r.knee1			l.knee1			r.bar2			r.mall			l.bar2			l.mall			r.met			r.heel			l.heel			l.met			r.mallm			l.mallm			r.kneem			l.kneem			
		X1	Y1	Z1	X2	Y2	Z2	X3	Y3	Z3	X4	Y4	Z4	X5	Y5	Z5	X6	Y6	Z6	X7	Y7	Z7	X8	Y8	Z8	X9	Y9	Z9	X10	Y10	Z10	X11	Y11	Z11	X12	Y12	Z12	X13	Y13	Z13	X14	Y14	Z14	X15	Y15	Z15	X16	Y16	Z16	X17	Y17	Z17	X18	Y18	Z18	X19	Y19	Z19	X20	Y20	Z20	X21	Y21	Z21	X22	Y22	Z22	

804	3.216000	1007.012486	1330.767393	358.908176	1036.224961	1318.804741	69.094330	926.370144	1356.186628	223.444939	1139.949918	870.422900	360.741049	1087.209702	871.979833	58.469497	887.810528	938.764334	235.492855	1037.148952	834.799767	434.295803	1031.725645	793.842435	25.810264	1009.818554	467.840284	388.111115	1003.119230	447.070241	96.565396	1006.203055	405.325830	383.329898	970.951915	76.334789	363.933265	981.886208	403.281629	93.903810	974.855781	70.448324	111.201897	1116.020799	42.676482	345.006883	909.110069	33.472065	318.990201	913.680792	31.529609	158.410251	1117.402673	40.852003	129.388943	980.720580	75.285465	280.300736	984.088540	74.941829	188.770667	1035.822630	450.331718	249.197319	1011.670589	447.890937	230.102479	
805	3.220000	1007.023692	1330.760598	358.913481	1036.241293	1318.807006	69.095746	926.383018	1356.188297	223.446518	1139.981985	870.434999	360.743165	1087.226868	871.981382	58.466412	887.847185	938.749611	235.486761	1037.164330	834.802985	434.294879	1031.745672	793.833613	25.807088	1009.837866	467.843622	388.109565	1003.130555	447.070867	96.568070	1006.219745	405.335784	383.334994	970.953345	76.326162	363.935024	981.895506	403.282970	93.900710	974.844992	70.448279	111.212865	1116.028190	42.676345	345.012367	909.113109	33.471927	318.993032	913.677335	31.515621	158.473194	1117.401600	40.851943	129.390970	980.722308	75.274557	280.298799	984.150290	74.943013	188.740343	1035.823703	450.336307	249.183536	1011.681318	447.893381	230.107307	
806	3.224000	1007.034898	1330.757141	358.919889	1036.270857	1318.814874	69.100745	926.391482	1356.189966	223.447546	1139.998794	870.431721	360.740632	1087.292552	871.996939	58.442131	887.877822	938.737810	235.478535	1037.159324	834.803343	434.289277	1031.757116	793.820918	25.812816	1009.854436	467.835873	388.110727	1003.136635	447.063863	96.567981	1006.232738	405.343562	383.342236	970.966220	76.320350	363.944083	981.906056	403.281778	93.900532	974.842489	70.438363	111.221053	1116.020441	42.670358	345.028132	909.110427	33.465955	319.004983	913.673937	31.504534	158.484429	1117.400885	40.845469	129.399493	980.720282	75.269595	280.298412	984.160662	74.939266	188.739493	1035.783291	450.303555	249.197856	1011.685848	447.889686	230.109677	
807	3.228000	1007.042408	1330.753803	358.921289	1036.290765	1318.817496	69.106951	926.418245	1356.180191	223.446280	1140.004039	870.423973	360.738039	1087.282658	871.966958	58.448769	887.905598	938.725948	235.466287	1037.169933	834.798992	434.293211	1031.774998	793.812752	25.816131	1009.855747	467.831612	388.108015	1003.157854	447.060734	96.569709	1006.239891	405.339569	383.345306	970.973313	76.315671	363.954276	981.913865	403.279066	93.900919	974.842429	70.430145	111.227386	1116.013885	42.667635	345.031530	909.106612	33.468381	319.006860	913.683593	31.484462	158.492446	1117.392063	40.841192	129.397988	980.717182	75.267442	280.295789	984.173357	74.923493	188.741148	1035.771966	450.288624	249.203086	1011.692643	447.885960	230.111718	
808	3.232000	1007.039785	1330.747008	358.924150	1036.306143	1318.824291	69.105789	926.426232	1356.169820	223.447427	1139.995337	870.418310	360.735536	1087.289929	871.953487	58.459859	887.937784	938.714981	235.453680	1037.180185	834.794044	434.299201	1031.822443	793.814063	25.801050	1009.856701	467.829943	388.104200	1003.176332	447.057605	96.568599	1006.221294	405.332237	383.339345	970.965743	76.316051	363.946140	981.919169	403.279543	93.898930	974.835873	70.433050	111.226931	1115.999103	42.656898	345.028996	909.116268	33.470493	319.008321	913.690686	31.479437	158.503607	1117.392778	40.843382	129.398838	980.708361	75.263180	280.300707	984.170020	74.914634	188.743234	1035.727262	450.258732	249.215379	1011.695147	447.880030	230.110794	
